# xmcd CD database file
#
# Track frame offsets:
#	150
#	9182
#	32459
#	53779
#	69418
#	83968
#	119505
#	140477
#	163169
#	192416
#	210118
#	247167
#	276379
#
# Disc length: 3891 seconds
#
# Revision: 7
# Processed by: cddbd v1.5.1PL0 Copyright (c) Steve Scherf et al.
# Submitted via: CDex 1.50
#
DISCID=b50f310d
DTITLE=B.B. King - Live At San Quentin
DYEAR=1991
DGENRE=Blues
TTITLE0=Intro
TTITLE1=Let The Good Times Roll
TTITLE2=Every Day I Have The Blues
TTITLE3=Whole Lotta Loving
TTITLE4=Sweet Little Angel
TTITLE5=Never Make A Move Too Soon
TTITLE6=Into The Night
TTITLE7=Ain't Nobody's Bizness
TTITLE8=The Thrill Is Gone
TTITLE9=Peace To The World
TTITLE10=Nobody Loves Me But My Mother
TTITLE11=Sweet Sixteen
TTITLE12=Rock Me Baby
EXTD=YEAR: 1991
EXTT0=
EXTT1=
EXTT2=
EXTT3=
EXTT4=
EXTT5=
EXTT6=
EXTT7=
EXTT8=
EXTT9=
EXTT10=
EXTT11=
EXTT12=
PLAYORDER=
